<svg width="14" height="14" viewBox="0 0 14 14" fill="none" xmlns="http://www.w3.org/2000/svg">
<path fill-rule="evenodd" clip-rule="evenodd" d="M12.27 0.305L1.63399 0C1.56584 0.00506903 1.49863 0.0188479 1.43399 0.041C1.39309 0.0458137 1.35263 0.0538384 1.31299 0.065C1.21353 0.105552 1.12286 0.164979 1.04599 0.24H1.03999C0.878221 0.397718 0.786992 0.614072 0.786987 0.84V12.491C0.787517 12.7151 0.877052 12.9298 1.0359 13.0879C1.19474 13.246 1.40988 13.3345 1.63399 13.334L9.25999 14C9.48427 14.0008 9.69967 13.9124 9.85873 13.7543C10.0178 13.5962 10.1075 13.3813 10.108 13.157V4.2C10.1075 3.97572 10.0178 3.76085 9.85873 3.60273C9.69967 3.4446 9.48427 3.3562 9.25999 3.357L3.37299 3.047C3.00839 3.033 2.72004 2.73336 2.72004 2.3685C2.72004 2.00364 3.00839 1.704 3.37299 1.69L10.507 1.99H11.024C11.2449 1.99 11.424 2.16909 11.424 2.39V11.69C11.424 12.1578 11.8032 12.537 12.271 12.537C12.7388 12.537 13.118 12.1578 13.118 11.69V1.152C13.1169 0.684281 12.7377 0.30555 12.27 0.305Z" fill="#C1C7D0"/>
</svg>
