<svg width="24" height="24" viewBox="0 0 24 24" fill="none" xmlns="http://www.w3.org/2000/svg">
<path d="M5 12C5 11.5707 5.34821 11.2222 5.77778 11.2222H13.2149L11.6842 9.66667L12.7778 8.57311L15.6703 11.4408C15.9737 11.7449 15.9737 12.2551 15.6703 12.5592L12.7778 15.4269L11.6842 14.3333L13.2149 12.7778H5.77778C5.34821 12.7778 4.99992 12.4293 5 12ZM7.33333 8.11111C7.33333 6.393 8.72626 5 10.4444 5H16.6667C18.3848 5 19.7778 6.393 19.7778 8.11111V15.8889C19.7778 17.607 18.3848 19 16.6667 19H10.4444C8.72626 19 7.33333 17.607 7.33333 15.8889C7.33333 15.4596 7.68154 15.1111 8.11111 15.1111C8.54068 15.1111 8.88889 15.4596 8.88889 15.8889C8.88889 16.7483 9.58531 17.4444 10.4444 17.4444H16.6667C17.5261 17.4444 18.2222 16.7483 18.2222 15.8889V8.11111C18.2222 7.25167 17.5261 6.55556 16.6667 6.55556H10.4444C9.58531 6.55556 8.88889 7.25167 8.88889 8.11111C8.88889 8.54044 8.54068 8.88889 8.11111 8.88889C7.68154 8.88889 7.33333 8.54044 7.33333 8.11111Z" fill="#C1C7D0"/>
</svg>
