<svg width="23" height="24" viewBox="0 0 23 24" fill="none" xmlns="http://www.w3.org/2000/svg">
<g clip-path="url(#clip0_1_2534)">
<path d="M22.9867 11.2459C22.8503 8.90628 22.0728 6.66022 20.75 4.7846C19.4272 2.90897 17.617 1.48576 15.5425 0.690412C13.468 -0.104941 11.2199 -0.237673 9.07532 0.308577C6.93071 0.854827 4.98336 2.05618 3.4733 3.76455C1.96324 5.47292 0.956486 7.61364 0.577134 9.92281C0.197781 12.232 0.462413 14.6087 1.33841 16.7599C2.21441 18.9112 3.66348 20.7429 5.507 22.0294C7.35052 23.3159 9.5079 24.0009 11.7132 23.9999H17.8124C19.1841 23.9981 20.4992 23.418 21.4692 22.3869C22.4392 21.3559 22.985 19.958 22.9867 18.4999V11.3399V11.2459ZM20.1643 18.4999C20.1643 19.1629 19.9165 19.7988 19.4755 20.2677C19.0344 20.7365 18.4361 20.9999 17.8124 20.9999H11.7132C10.5179 20.9992 9.33619 20.7306 8.24508 20.2118C7.15397 19.693 6.17799 18.9356 5.38077 17.9889C4.58002 17.0429 3.97881 15.9259 3.61746 14.7128C3.25611 13.4996 3.14297 12.2184 3.28563 10.9549C3.51072 8.96309 4.35288 7.10748 5.67941 5.68044C7.00594 4.2534 8.74145 3.33605 10.6125 3.07291C10.9786 3.02435 11.3471 2.99997 11.716 2.99991C13.6881 2.99391 15.5993 3.72523 17.1152 5.06591C17.999 5.84622 18.7248 6.80881 19.2489 7.89556C19.7729 8.98231 20.0843 10.1707 20.1643 11.3889V18.4999Z" fill="#FF9D01"/>
<path d="M9.34551 11.0001H12.1679C12.5421 11.0001 12.9011 10.8421 13.1657 10.5608C13.4304 10.2795 13.5791 9.89795 13.5791 9.50012C13.5791 9.1023 13.4304 8.72077 13.1657 8.43946C12.9011 8.15816 12.5421 8.00012 12.1679 8.00012H9.34551C8.97124 8.00012 8.6123 8.15816 8.34765 8.43946C8.083 8.72077 7.93433 9.1023 7.93433 9.50012C7.93433 9.89795 8.083 10.2795 8.34765 10.5608C8.6123 10.8421 8.97124 11.0001 9.34551 11.0001Z" fill="#FF9D01"/>
<path d="M15.931 12.9999H9.34551C8.97124 12.9999 8.6123 13.1579 8.34765 13.4392C8.083 13.7205 7.93433 14.1021 7.93433 14.4999C7.93433 14.8977 8.083 15.2792 8.34765 15.5605C8.6123 15.8418 8.97124 15.9999 9.34551 15.9999H15.931C16.3053 15.9999 16.6642 15.8418 16.9289 15.5605C17.1935 15.2792 17.3422 14.8977 17.3422 14.4999C17.3422 14.1021 17.1935 13.7205 16.9289 13.4392C16.6642 13.1579 16.3053 12.9999 15.931 12.9999Z" fill="#FF9D01"/>
</g>
<defs>
<clipPath id="clip0_1_2534">
<rect width="22.5789" height="24" fill="white" transform="translate(0.407898)"/>
</clipPath>
</defs>
</svg>
