<svg width="24" height="24" viewBox="0 0 24 24" fill="none" xmlns="http://www.w3.org/2000/svg">
<path fill-rule="evenodd" clip-rule="evenodd" d="M6.909 6.27295C5.85469 6.27295 5 7.12764 5 8.18195V9.45495H19V8.18195C19 7.67565 18.7989 7.19009 18.4409 6.83208C18.0829 6.47408 17.5973 6.27295 17.091 6.27295H6.909ZM19 10.7269H5V15.8179C5 16.3242 5.20113 16.8098 5.55913 17.1678C5.91714 17.5258 6.4027 17.7269 6.909 17.7269H17.091C17.5973 17.7269 18.0829 17.5258 18.4409 17.1678C18.7989 16.8098 19 16.3242 19 15.8179V10.7269ZM8.094 15.8999H10.28C10.8112 15.8983 11.2414 15.4681 11.243 14.9369C11.2419 14.4056 10.8114 13.975 10.28 13.9739H8.094C7.56261 13.975 7.1321 14.4056 7.131 14.9369C7.13265 15.4681 7.56283 15.8983 8.094 15.8999Z" fill="#C1C7D0"/>
</svg>
