<svg width="24" height="24" viewBox="0 0 24 24" fill="none" xmlns="http://www.w3.org/2000/svg">
<g clip-path="url(#clip0_1_2531)">
<path d="M17.0164 1.9165C15.957 1.93402 14.9208 2.24836 14.0122 2.82778C13.1037 3.40719 12.3551 4.23117 11.8421 5.2165C11.329 4.23117 10.5804 3.40719 9.67188 2.82778C8.76337 2.24836 7.7271 1.93402 6.66772 1.9165C4.97895 1.99449 3.38785 2.77976 2.24204 4.10074C1.09623 5.42171 0.48885 7.17103 0.552589 8.9665C0.552589 13.5135 5.05521 18.4795 8.83154 21.8465C9.67469 22.5996 10.7407 23.0125 11.8421 23.0125C12.9434 23.0125 14.0094 22.5996 14.8526 21.8465C18.6289 18.4795 23.1315 13.5135 23.1315 8.9665C23.1953 7.17103 22.5879 5.42171 21.4421 4.10074C20.2963 2.77976 18.7052 1.99449 17.0164 1.9165Z" fill="#FF9D01"/>
</g>
<defs>
<clipPath id="clip0_1_2531">
<rect width="22.5789" height="24" fill="white" transform="translate(0.552612)"/>
</clipPath>
</defs>
</svg>
