<svg width="24" height="24" viewBox="0 0 24 24" fill="none" xmlns="http://www.w3.org/2000/svg">
<g clip-path="url(#clip0_1_2532)">
<path d="M22.5946 8.69514L15.9282 1.60916C13.906 -0.534759 10.6329 -0.534759 8.61074 1.60916L1.94432 8.69514C1.32481 9.35013 0.977568 10.2413 0.979993 11.1701V21.5481C0.982066 22.9027 2.01523 24 3.28966 24.0011H21.2493C22.5237 24 23.5568 22.9027 23.5589 21.5481V11.1701C23.5614 10.2413 23.2141 9.35013 22.5946 8.69514ZM20.7365 21.0011H16.0326V17.8191C16.0326 15.7105 14.4244 14.0011 12.4407 14.0011H12.0982C10.1145 14.0011 8.50631 15.7105 8.50631 17.8191V21.0011H3.80236V11.1701C3.80266 11.0375 3.85197 10.9104 3.93973 10.8161L10.6061 3.73015C11.5245 2.7537 13.0137 2.75352 13.9323 3.72969C13.9325 3.72983 13.9327 3.73001 13.9328 3.73015L20.5992 10.8161C20.6869 10.9104 20.7363 11.0375 20.7366 11.1701V21.0011H20.7365Z" fill="#FF9D01"/>
</g>
<defs>
<clipPath id="clip0_1_2532">
<rect width="22.5789" height="24" fill="white" transform="translate(0.980225)"/>
</clipPath>
</defs>
</svg>
