<svg width="12" height="14" viewBox="0 0 12 14" fill="none" xmlns="http://www.w3.org/2000/svg">
<path fill-rule="evenodd" clip-rule="evenodd" d="M7.01801 13.632C8.67201 12.277 11.761 9.276 11.761 5.761C11.761 2.57929 9.18173 0 6.00001 0C2.8183 0 0.239014 2.57929 0.239014 5.761C0.239014 9.276 3.32801 12.277 4.98201 13.632C5.57184 14.1231 6.42819 14.1231 7.01801 13.632ZM6.00001 7.041C7.0604 7.041 7.92001 6.18139 7.92001 5.121C7.92001 4.06061 7.0604 3.201 6.00001 3.201C4.93963 3.201 4.08001 4.06061 4.08001 5.121C4.08001 6.18139 4.93963 7.041 6.00001 7.041Z" fill="#C1C7D0"/>
</svg>
