<svg width="12" height="14" viewBox="0 0 12 14" fill="none" xmlns="http://www.w3.org/2000/svg">
<path fill-rule="evenodd" clip-rule="evenodd" d="M10.363 5.134V4.363C10.363 1.95338 8.40964 0 6.00002 0C3.5904 0 1.63702 1.95338 1.63702 4.363V5.134C0.995146 5.35623 0.559729 5.95488 0.546021 6.634V12.361C0.565834 12.8208 0.769548 13.2535 1.1114 13.5616C1.45326 13.8698 1.90459 14.0278 2.36402 14H9.63602C10.095 14.0278 10.5458 13.8703 10.8876 13.5627C11.2294 13.2551 11.4334 12.8233 11.454 12.364V6.637C11.4416 5.95677 11.0059 5.35661 10.363 5.134ZM6.00002 2.182C7.20426 2.1831 8.18037 3.15876 8.18202 4.363V5H3.81802V4.363C3.81967 3.15876 4.79578 2.1831 6.00002 2.182Z" fill="#C1C7D0"/>
</svg>
