<svg width="14" height="14" viewBox="0 0 14 14" fill="none" xmlns="http://www.w3.org/2000/svg">
<path fill-rule="evenodd" clip-rule="evenodd" d="M14 7.423C14 7.318 14 7.215 13.995 7.11C13.9971 6.87398 13.9871 6.63801 13.965 6.403C13.7985 3.90106 12.25 1.70105 9.95103 0.700003C7.57183 -0.480795 4.72106 -0.154646 2.67003 1.533C1.03606 2.74413 0.0537809 4.64261 0.00903247 6.676C-0.164287 9.72176 1.68307 12.5198 4.55203 13.557C4.76066 13.6317 4.97293 13.6958 5.18803 13.749C5.28803 13.775 5.37803 13.8 5.47103 13.828L5.64503 13.882L6.58603 14C6.68603 14 6.79803 14 6.90403 14C7.1501 14.0016 7.39609 13.9905 7.64103 13.967C8.04238 13.9202 8.44047 13.8487 8.83303 13.753C9.10845 13.6915 9.34663 13.5199 9.49203 13.278C9.70246 12.9143 9.66887 12.4589 9.40737 12.1301C9.14587 11.8012 8.70975 11.6659 8.30803 11.789C5.7331 12.4904 3.06367 11.0339 2.26003 8.489C1.81226 7.03822 2.05393 5.46226 2.91583 4.21231C3.77773 2.96235 5.16484 2.17623 6.68003 2.079C8.26381 1.97448 9.80144 2.63686 10.8135 3.8596C11.8255 5.08234 12.1888 6.71668 11.79 8.253C11.7563 8.40938 11.6845 8.55502 11.581 8.677C11.3668 8.87035 11.055 8.91023 10.799 8.777C10.5523 8.639 10.358 8.42356 10.246 8.164C9.78903 7.224 10.125 5.818 10.178 4.8C10.2041 4.28101 9.80498 3.83893 9.28603 3.812C8.95617 3.79616 8.64288 3.95738 8.46403 4.235C7.70796 3.77259 6.80098 3.62436 5.93703 3.822C4.89721 4.05918 4.03297 4.77826 3.61067 5.75762C3.18838 6.73698 3.25873 7.85906 3.80003 8.778C4.37289 9.78082 5.43132 10.408 6.58603 10.429C7.35712 10.4464 8.1121 10.2069 8.73203 9.748C9.41017 10.543 10.4385 10.9499 11.477 10.834C12.5264 10.6864 13.3982 9.94999 13.719 8.94C13.764 8.817 13.797 8.69 13.83 8.562L13.881 8.362L14 7.423ZM8.01003 7.15C7.97732 7.7769 7.50638 8.29342 6.88516 8.38374C6.26394 8.47406 5.66542 8.11303 5.45555 7.5214C5.24567 6.92977 5.48289 6.27228 6.02216 5.95093C6.56142 5.62958 7.25258 5.73386 7.67303 6.2C7.90797 6.45881 8.02936 6.801 8.01003 7.15Z" fill="#C1C7D0"/>
</svg>
