<svg width="24" height="24" viewBox="0 0 24 24" fill="none" xmlns="http://www.w3.org/2000/svg">
<path fill-rule="evenodd" clip-rule="evenodd" d="M17.264 12.5159L18.805 14.3059C18.9944 14.4949 19.0513 14.7794 18.949 15.0266C18.8468 15.2738 18.6056 15.435 18.338 15.4349H5.66802C5.40077 15.4344 5.16002 15.2733 5.05768 15.0264C4.95534 14.7796 5.01149 14.4954 5.20002 14.3059L6.71302 12.5159C6.96101 12.268 7.10023 11.9316 7.10002 11.5809V9.86393C7.23229 7.20192 9.4795 5.14053 12.143 5.23793C14.7379 5.36116 16.8005 7.46126 16.877 10.0579V11.5809C16.8768 11.9316 17.016 12.268 17.264 12.5159ZM12 18.7639C10.7733 18.8349 9.68339 17.9873 9.45002 16.7809H14.551C14.3172 17.9875 13.2269 18.835 12 18.7639Z" fill="#C1C7D0"/>
</svg>
