<svg width="24" height="24" viewBox="0 0 24 24" fill="none" xmlns="http://www.w3.org/2000/svg">
<g clip-path="url(#clip0_10_3270)">
<path d="M22.9994 1.00237C22.1725 0.163899 20.9666 -0.179879 19.8219 0.0965026L4.53608 3.30904C1.63325 3.73859 -0.371726 6.44002 0.0578217 9.34281C0.224813 10.4713 0.750628 11.5162 1.55746 12.3227L3.19621 13.9625C3.27294 14.0382 3.31582 14.1417 3.31521 14.2495V17.2731C3.31741 19.1541 4.84171 20.6784 6.72272 20.6806H9.74628C9.85422 20.6806 9.9578 20.7234 10.0342 20.7996L11.673 22.4383C12.6639 23.4358 14.0115 23.9971 15.4174 23.9981C15.9978 23.9976 16.5743 23.9027 17.1242 23.7171C19.0219 23.0869 20.4009 21.4388 20.6867 19.4597L23.8992 4.22194C24.1878 3.06514 23.8459 1.84188 22.9994 1.00237ZM3.12127 7.82737C3.39301 6.98782 4.12631 6.38158 5.002 6.27261C5.03734 6.26792 5.0723 6.26192 5.10698 6.25461L18.4271 3.45503L6.31482 15.5603V14.2494C6.31703 13.3452 5.95689 12.4777 5.31498 11.8408L3.67821 10.202C3.04778 9.58544 2.83069 8.65998 3.12127 7.82737ZM17.7412 18.8938C17.7331 18.9288 17.7282 18.9638 17.7232 18.9988C17.5495 20.2653 16.3821 21.1513 15.1156 20.9776C14.6152 20.909 14.151 20.6786 13.7937 20.3216L12.156 18.6838C11.5187 18.0417 10.6509 17.6816 9.74633 17.684H8.43552L20.5448 5.57174L17.7412 18.8938Z" fill="white"/>
</g>
<defs>
<clipPath id="clip0_10_3270">
<rect width="24" height="24" fill="white"/>
</clipPath>
</defs>
</svg>
