<svg width="14" height="14" viewBox="0 0 14 14" fill="none" xmlns="http://www.w3.org/2000/svg">
<path fill-rule="evenodd" clip-rule="evenodd" d="M7.83097 0.688077L9.58497 4.38808L13.177 4.76908C13.5489 4.80516 13.8619 5.06282 13.9688 5.42085C14.0757 5.77888 13.9552 6.16599 13.664 6.40008L10.8 8.75508L11.686 12.7141C11.7669 13.0738 11.625 13.4471 11.3255 13.6622C11.0261 13.8773 10.627 13.8926 10.312 13.7011L6.99997 11.6861L3.68497 13.7001C3.36977 13.8912 2.97088 13.8758 2.6714 13.6608C2.37192 13.4459 2.22968 13.0729 2.30997 12.7131L3.19997 8.75508L0.335972 6.40008C0.0468286 6.16538 -0.0720942 5.77939 0.0348352 5.42267C0.141765 5.06595 0.453404 4.80902 0.823972 4.77208L4.41497 4.39108L6.16897 0.688077C6.32137 0.367274 6.64481 0.162842 6.99997 0.162842C7.35513 0.162842 7.67858 0.367274 7.83097 0.688077Z" fill="#C1C7D0"/>
</svg>
