<svg width="24" height="24" viewBox="0 0 24 24" fill="none" xmlns="http://www.w3.org/2000/svg">
<path fill-rule="evenodd" clip-rule="evenodd" d="M5.84497 16.949V15.943C5.88299 15.196 6.33202 14.5317 7.01097 14.218C10.2127 12.932 13.7873 12.932 16.989 14.218C17.6679 14.5317 18.1169 15.196 18.155 15.943V16.949C18.1547 17.4936 17.938 18.0157 17.5525 18.4004C17.1671 18.7851 16.6445 19.0008 16.1 19H7.89997C7.3554 19.0008 6.83285 18.7851 6.4474 18.4004C6.06196 18.0157 5.84524 17.4936 5.84497 16.949ZM12 5C10.6166 4.9996 9.36926 5.8326 8.83959 7.11053C8.30992 8.38846 8.60228 9.85963 9.58031 10.838C10.5583 11.8163 12.0294 12.1091 13.3075 11.5798C14.5856 11.0505 15.419 9.80335 15.419 8.42C15.4192 7.51305 15.0591 6.64316 14.4179 6.00176C13.7767 5.36035 12.9069 5 12 5Z" fill="#C1C7D0"/>
</svg>
