<svg width="23" height="24" viewBox="0 0 23 24" fill="none" xmlns="http://www.w3.org/2000/svg">
<g clip-path="url(#clip0_1_2533)">
<path d="M10.8993 14.0188C6.88987 14.404 3.83527 18.0051 3.8885 22.2838V22.5008C3.8885 23.3292 4.52032 24.0008 5.29969 24.0008C6.07906 24.0008 6.71087 23.3292 6.71087 22.5008V22.2238C6.66845 19.5967 8.4924 17.3564 10.9444 17.0238C13.5328 16.751 15.8391 18.7602 16.0958 21.5114C16.1109 21.6741 16.1186 21.8374 16.1188 22.0008V22.5008C16.1188 23.3292 16.7506 24.0008 17.5299 24.0008C18.3093 24.0008 18.9411 23.3292 18.9411 22.5008V22.0008C18.9365 17.5775 15.5593 13.9957 11.398 14.0006C11.2316 14.0008 11.0653 14.0069 10.8993 14.0188Z" fill="#FF9D01"/>
<path d="M11.4149 12C14.5324 12 17.0596 9.31369 17.0596 6C17.0596 2.68631 14.5324 0 11.4149 0C8.2974 0 5.77014 2.68631 5.77014 6C5.77323 9.31233 8.29868 11.9967 11.4149 12ZM11.4149 3C12.9736 3 14.2372 4.34316 14.2372 6C14.2372 7.65684 12.9736 9 11.4149 9C9.85614 9 8.59251 7.65684 8.59251 6C8.59251 4.34316 9.85614 3 11.4149 3Z" fill="#FF9D01"/>
</g>
<defs>
<clipPath id="clip0_1_2533">
<rect width="22.5789" height="24" fill="white" transform="translate(0.125)"/>
</clipPath>
</defs>
</svg>
